<?xml version="1.0" standalone="no"?>
<!DOCTYPE svg PUBLIC "-//W3C//DTD SVG 20010904//EN"
 "http://www.w3.org/TR/2001/REC-SVG-20010904/DTD/svg10.dtd">
<svg version="1.0" xmlns="http://www.w3.org/2000/svg"
 width="386.000000pt" height="339.000000pt" viewBox="0 0 386.000000 339.000000"
 preserveAspectRatio="xMidYMid meet">
<metadata>
Created by potrace 1.16, written by Peter Selinger 2001-2019
</metadata>
<g transform="translate(0.000000,339.000000) scale(0.100000,-0.100000)"
fill="#000000" stroke="none">
<path d="M1750 3284 c-341 -48 -642 -187 -892 -411 -239 -214 -391 -455 -480
-758 -78 -268 -80 -581 -7 -868 74 -291 263 -597 487 -792 627 -543 1528 -551
2161 -19 174 145 292 299 401 519 120 242 161 423 161 710 0 456 -144 807
-474 1151 -184 193 -435 347 -677 417 -206 60 -478 80 -680 51z m408 -85 c530
-64 1012 -432 1230 -940 221 -519 137 -1119 -222 -1565 -220 -274 -563 -477
-931 -550 -126 -26 -433 -26 -560 -1 -116 23 -227 55 -243 71 -22 21 -27 173
-8 241 29 105 91 214 174 306 76 85 132 179 159 268 20 67 16 183 -11 301 -20
87 -22 107 -11 119 23 24 54 2 94 -67 61 -104 138 -170 279 -242 45 -23 82
-44 82 -47 0 -2 -15 -23 -34 -45 -35 -41 -108 -202 -125 -279 -28 -118 1 -231
83 -330 51 -62 109 -109 135 -109 19 0 -12 49 -74 119 -32 36 -64 80 -72 99
-23 56 -27 150 -9 221 17 66 101 248 133 288 l18 23 107 -35 c170 -55 283 -46
328 27 18 28 20 43 15 93 -6 57 -4 63 25 104 31 43 34 63 15 112 -4 10 4 28
19 47 29 34 33 64 11 82 -28 24 -18 50 28 69 83 36 109 103 63 158 -28 34
-115 172 -146 232 -21 41 -22 53 -15 155 6 96 4 123 -15 196 -25 101 -55 185
-78 220 -9 14 -17 44 -18 67 -7 109 -92 201 -236 254 -53 19 -118 26 -118 12
0 -5 40 -28 88 -52 114 -58 146 -83 173 -137 27 -56 22 -97 -19 -156 -39 -57
-220 -232 -300 -291 -88 -65 -281 -185 -377 -235 l-80 -42 45 41 c25 23 63 55
84 71 82 60 301 265 370 347 96 114 176 234 164 247 -2 2 -38 -37 -79 -87
-126 -155 -336 -342 -619 -553 -250 -187 -375 -353 -409 -543 -18 -96 6 -212
47 -228 10 -4 12 0 7 12 -17 41 -17 149 0 213 29 114 97 240 160 299 59 53 90
68 61 29 -87 -119 -100 -159 -93 -278 4 -65 14 -112 46 -200 78 -220 56 -296
-159 -540 -52 -59 -104 -129 -118 -160 -34 -72 -42 -191 -17 -239 9 -18 19
-31 21 -28 3 2 6 42 7 88 2 74 7 92 36 146 18 34 57 88 85 120 117 130 207
249 226 301 30 80 26 159 -16 325 -64 250 -53 298 98 443 64 62 106 91 186
132 56 29 102 50 102 47 0 -15 -64 -96 -138 -177 -44 -47 -97 -117 -118 -154
-53 -95 -58 -186 -19 -369 25 -118 27 -135 16 -194 -17 -91 -60 -166 -154
-268 -118 -130 -144 -163 -174 -229 -27 -56 -28 -66 -27 -196 l1 -137 -109 55
c-428 220 -715 606 -815 1099 -27 137 -25 434 5 572 103 476 406 869 835 1085
109 54 262 109 377 133 138 30 349 36 528 14z m466 -902 c21 -93 24 -128 19
-202 -7 -108 0 -126 114 -297 43 -67 73 -121 71 -133 -2 -14 -24 -30 -70 -52
-38 -18 -68 -38 -68 -45 0 -7 9 -26 20 -43 11 -16 20 -39 20 -50 0 -26 -77
-75 -119 -75 -58 0 -27 -27 52 -44 41 -9 42 -29 7 -78 -30 -41 -31 -46 -25
-106 6 -57 5 -66 -16 -88 -12 -13 -36 -26 -54 -30 -114 -21 -471 118 -593 231
-34 31 -79 85 -102 121 -47 74 -91 107 -132 98 -20 -4 -28 -2 -28 8 1 33 44
103 102 165 91 98 130 148 184 238 68 115 128 186 219 262 137 115 243 216
292 277 l47 59 18 -52 c9 -29 29 -103 42 -164z"/>
<path d="M2056 2909 c-74 -25 -126 -61 -191 -130 -61 -66 -110 -141 -131 -201
-11 -32 -30 -58 -65 -88 -27 -23 -54 -40 -59 -38 -5 2 2 28 16 58 48 102 64
160 64 236 0 90 -17 174 -35 174 -18 0 -82 -75 -110 -130 -60 -118 -70 -231
-30 -344 l24 -69 -76 -84 c-41 -46 -77 -82 -79 -80 -2 2 3 24 12 48 22 63 29
184 14 263 -20 106 -54 107 -100 4 -40 -92 -46 -209 -18 -361 l11 -58 -44 -64
c-43 -64 -44 -65 -52 -38 -4 16 -2 73 4 129 11 92 11 108 -10 195 -12 52 -34
121 -50 154 l-29 60 -33 -70 c-32 -66 -34 -76 -33 -175 0 -117 16 -169 80
-265 l35 -53 -21 -53 c-12 -30 -59 -126 -105 -214 -96 -185 -142 -309 -151
-404 -12 -127 27 -266 108 -385 69 -102 81 -146 53 -200 -19 -35 -19 -36 1
-36 10 0 -5 -17 -35 -42 -28 -23 -51 -45 -51 -50 0 -14 64 -8 105 11 73 33
117 92 149 200 24 81 20 186 -14 361 -16 85 -30 181 -30 213 0 31 -4 57 -9 57
-4 0 -16 -27 -25 -59 -14 -51 -15 -75 -6 -173 6 -62 15 -140 20 -173 13 -81
12 -167 -1 -202 l-12 -28 -8 30 c-5 17 -27 59 -49 95 -22 36 -61 105 -85 154
-44 88 -45 92 -45 187 0 148 26 219 181 500 42 75 99 170 128 211 l53 76 111
4 c124 5 189 27 268 89 40 32 73 81 62 93 -4 3 -33 6 -65 6 -63 0 -140 -23
-255 -76 -40 -18 -73 -30 -73 -27 0 12 133 163 167 189 36 27 45 29 163 35
158 8 211 27 296 107 62 58 131 143 104 127 -8 -4 -27 -17 -42 -27 -61 -43
-320 -128 -388 -128 -20 0 -16 5 24 35 25 20 64 42 86 50 61 22 223 147 268
207 64 86 108 189 80 187 -7 0 -40 -9 -72 -20z"/>
</g>
</svg>
