<?xml version="1.0" standalone="no"?>
<!DOCTYPE svg PUBLIC "-//W3C//DTD SVG 20010904//EN"
 "http://www.w3.org/TR/2001/REC-SVG-20010904/DTD/svg10.dtd">
<svg version="1.0" xmlns="http://www.w3.org/2000/svg" x="0px" y="0px" viewBox="0 0 512 512"
 style="enable-background:new 0 0 512 512;" xml:space="preserve"
 width="512" height="512" 
 preserveAspectRatio="xMidYMid meet">
<metadata>
Created by potrace 1.16, written by Peter Selinger 2001-2019
</metadata>
<g transform="translate(0.000000,512.000000) scale(0.100000,-0.100000)"
fill="#000000" stroke="none">
<path d="M3722 4601 c-73 -27 -112 -53 -165 -110 -46 -49 -75 -98 -96 -161
l-11 -35 -665 -206 -666 -207 -66 34 c-89 44 -181 64 -300 64 -113 -1 -162
-10 -253 -47 -146 -60 -271 -176 -339 -315 -54 -111 -71 -182 -71 -303 0 -189
61 -336 195 -471 130 -132 281 -194 467 -194 53 0 120 5 148 11 28 6 54 9 57
6 3 -3 38 -221 78 -484 41 -263 76 -490 79 -504 l5 -26 -82 28 c-113 39 -213
53 -332 46 -99 -6 -220 -34 -277 -63 -16 -9 -31 -14 -33 -12 -1 2 25 197 59
435 l62 432 -45 7 c-25 4 -61 8 -80 8 l-35 1 -72 -502 -73 -503 -35 -31 c-77
-67 -212 -285 -204 -328 2 -11 139 -67 143 -58 94 204 189 309 350 387 185 90
384 91 570 5 142 -65 251 -171 321 -310 31 -63 64 -160 64 -192 0 -10 -95 -13
-440 -13 l-441 0 -24 -25 c-39 -38 -27 -102 22 -124 16 -8 193 -11 578 -11
l555 0 0 -90 0 -90 -915 0 -915 0 0 90 0 90 219 0 c206 0 220 1 245 21 33 26
37 88 6 119 -19 19 -33 20 -300 20 -264 0 -281 -1 -299 -19 -29 -29 -33 -66
-29 -258 3 -164 4 -174 26 -195 l23 -23 1024 0 1024 0 23 23 c22 22 23 28 23
228 0 254 6 244 -146 244 l-99 0 0 26 c0 14 -7 54 -16 88 -35 137 -106 263
-208 374 l-58 62 -93 602 -93 603 22 14 c11 7 57 50 101 95 85 86 142 182 166
282 6 27 17 54 23 61 6 7 278 158 604 336 l592 324 58 -29 c73 -36 169 -52
245 -40 l57 9 0 -174 0 -173 -95 0 -95 0 0 110 0 110 -80 0 -80 0 0 -190 0
-190 85 0 85 0 0 -178 0 -178 -33 -12 c-46 -17 -106 -79 -134 -139 -19 -42
-23 -65 -21 -120 l3 -68 -142 -130 -142 -130 0 -197 -1 -198 80 0 80 0 0 158
0 158 108 100 107 100 33 -22 c42 -29 131 -48 185 -39 23 4 65 18 94 32 l52
26 105 -99 106 -99 0 -157 0 -158 80 0 80 0 -1 198 -1 197 -141 130 -142 130
3 64 c5 80 -17 139 -72 199 -23 25 -60 54 -83 64 l-43 19 0 174 0 175 90 0 90
0 0 296 0 297 41 44 c109 118 134 308 62 462 -35 73 -122 160 -198 196 -52 25
-74 29 -165 32 -85 3 -115 0 -158 -16z m237 -158 c133 -47 199 -207 141 -341
-41 -96 -130 -154 -235 -155 -71 0 -118 18 -173 67 -22 20 -44 36 -49 36 -5 0
-281 -148 -613 -330 l-605 -330 -12 58 c-21 92 -79 127 -137 81 l-26 -21 6
-132 c6 -109 4 -141 -10 -191 -25 -84 -57 -143 -113 -205 -230 -256 -628 -220
-812 75 -95 151 -95 369 0 520 97 156 255 245 433 245 99 0 165 -18 267 -73
l77 -41 688 214 c379 117 717 222 751 232 l61 18 7 53 c17 122 95 209 212 236
44 10 81 6 142 -16z m-29 -1668 c96 -50 92 -170 -8 -212 -94 -39 -194 83 -136
166 20 28 72 61 97 61 10 0 31 -7 47 -15z" fill="#3a506b"/>
<path d="M3815 4321 c-63 -28 -93 -116 -60 -176 39 -73 139 -86 199 -26 27 27
31 38 31 86 0 48 -4 58 -31 86 -34 33 -99 48 -139 30z" fill="#00c2cb"/>
<path d="M1688 3643 c-59 -10 -87 -88 -49 -134 17 -21 28 -24 93 -24 59 -1 82
-6 111 -23 40 -26 71 -71 82 -119 16 -77 -46 -172 -127 -193 -114 -31 -231 77
-212 197 8 53 -23 93 -72 93 -52 0 -72 -15 -85 -63 -25 -92 15 -221 91 -297
124 -124 328 -129 463 -11 20 18 51 63 69 99 29 59 33 76 33 147 -1 135 -63
238 -178 295 -62 30 -155 45 -219 33z" fill="#00c2cb"/>
</g>
</svg>
